<svg width="528" height="63" viewBox="0 0 528 63" fill="none" xmlns="http://www.w3.org/2000/svg">
<path d="M0.590909 49V2.45454H9.02273V23.8409H9.59091L27.75 2.45454H38.0455L20.0455 23.3409L38.2045 49H28.0682L14.1818 29.0455L9.02273 35.1364V49H0.590909ZM52.3052 49.7045C50.0931 49.7045 48.1007 49.3106 46.328 48.5227C44.5704 47.7197 43.1764 46.5379 42.1461 44.9773C41.131 43.4167 40.6234 41.4924 40.6234 39.2045C40.6234 37.2348 40.987 35.6061 41.7143 34.3182C42.4416 33.0303 43.434 32 44.6916 31.2273C45.9492 30.4545 47.3658 29.8712 48.9416 29.4773C50.5325 29.0682 52.1764 28.7727 53.8734 28.5909C55.9189 28.3788 57.578 28.1894 58.8507 28.0227C60.1234 27.8409 61.0477 27.5682 61.6234 27.2045C62.2143 26.8258 62.5098 26.2424 62.5098 25.4545V25.3182C62.5098 23.6061 62.0022 22.2803 60.987 21.3409C59.9719 20.4015 58.5098 19.9318 56.6007 19.9318C54.5855 19.9318 52.987 20.3712 51.8052 21.25C50.6386 22.1288 49.8507 23.1667 49.4416 24.3636L41.7598 23.2727C42.3658 21.1515 43.3658 19.3788 44.7598 17.9545C46.1537 16.5151 47.8583 15.4394 49.8734 14.7273C51.8886 14 54.1158 13.6364 56.5552 13.6364C58.237 13.6364 59.9113 13.8333 61.578 14.2273C63.2446 14.6212 64.7674 15.2727 66.1461 16.1818C67.5249 17.0758 68.631 18.2955 69.4643 19.8409C70.3128 21.3864 70.737 23.3182 70.737 25.6364V49H62.828V44.2045H62.5552C62.0552 45.1742 61.3507 46.0833 60.4416 46.9318C59.5477 47.7652 58.4189 48.4394 57.0552 48.9545C55.7067 49.4545 54.1234 49.7045 52.3052 49.7045ZM54.4416 43.6591C56.0931 43.6591 57.5249 43.3333 58.737 42.6818C59.9492 42.0152 60.881 41.1364 61.5325 40.0455C62.1992 38.9545 62.5325 37.7652 62.5325 36.4773V32.3636C62.2749 32.5758 61.8355 32.7727 61.2143 32.9545C60.6083 33.1364 59.9264 33.2955 59.1689 33.4318C58.4113 33.5682 57.6613 33.6894 56.9189 33.7955C56.1764 33.9015 55.5325 33.9924 54.987 34.0682C53.7598 34.2348 52.6613 34.5076 51.6916 34.8864C50.7219 35.2652 49.9567 35.7955 49.3961 36.4773C48.8355 37.1439 48.5552 38.0076 48.5552 39.0682C48.5552 40.5833 49.1083 41.7273 50.2143 42.5C51.3204 43.2727 52.7295 43.6591 54.4416 43.6591ZM77.7298 49V14.0909H85.707V19.9091H86.0707C86.707 17.8939 87.798 16.3409 89.3434 15.25C90.904 14.1439 92.6843 13.5909 94.6843 13.5909C95.1389 13.5909 95.6464 13.6136 96.207 13.6591C96.7828 13.6894 97.2601 13.7424 97.6389 13.8182V21.3864C97.2904 21.2652 96.7374 21.1591 95.9798 21.0682C95.2374 20.9621 94.5177 20.9091 93.8207 20.9091C92.3207 20.9091 90.9722 21.2348 89.7752 21.8864C88.5934 22.5227 87.6616 23.4091 86.9798 24.5455C86.298 25.6818 85.957 26.9924 85.957 28.4773V49H77.7298ZM108.001 62.0909C106.88 62.0909 105.842 62 104.887 61.8182C103.948 61.6515 103.198 61.4545 102.637 61.2273L104.546 54.8182C105.743 55.1667 106.812 55.3333 107.751 55.3182C108.69 55.303 109.516 55.0076 110.228 54.4318C110.955 53.8712 111.569 52.9318 112.069 51.6136L112.774 49.7273L100.115 14.0909H108.842L116.887 40.4545H117.251L125.319 14.0909H134.069L120.092 53.2273C119.44 55.0758 118.577 56.6591 117.501 57.9773C116.425 59.3106 115.107 60.3258 113.546 61.0227C112.001 61.7348 110.152 62.0909 108.001 62.0909ZM147.528 49.7045C145.316 49.7045 143.323 49.3106 141.55 48.5227C139.793 47.7197 138.399 46.5379 137.369 44.9773C136.353 43.4167 135.846 41.4924 135.846 39.2045C135.846 37.2348 136.21 35.6061 136.937 34.3182C137.664 33.0303 138.657 32 139.914 31.2273C141.172 30.4545 142.588 29.8712 144.164 29.4773C145.755 29.0682 147.399 28.7727 149.096 28.5909C151.141 28.3788 152.8 28.1894 154.073 28.0227C155.346 27.8409 156.27 27.5682 156.846 27.2045C157.437 26.8258 157.732 26.2424 157.732 25.4545V25.3182C157.732 23.6061 157.225 22.2803 156.21 21.3409C155.194 20.4015 153.732 19.9318 151.823 19.9318C149.808 19.9318 148.21 20.3712 147.028 21.25C145.861 22.1288 145.073 23.1667 144.664 24.3636L136.982 23.2727C137.588 21.1515 138.588 19.3788 139.982 17.9545C141.376 16.5151 143.081 15.4394 145.096 14.7273C147.111 14 149.338 13.6364 151.778 13.6364C153.46 13.6364 155.134 13.8333 156.8 14.2273C158.467 14.6212 159.99 15.2727 161.369 16.1818C162.747 17.0758 163.853 18.2955 164.687 19.8409C165.535 21.3864 165.96 23.3182 165.96 25.6364V49H158.05V44.2045H157.778C157.278 45.1742 156.573 46.0833 155.664 46.9318C154.77 47.7652 153.641 48.4394 152.278 48.9545C150.929 49.4545 149.346 49.7045 147.528 49.7045ZM149.664 43.6591C151.316 43.6591 152.747 43.3333 153.96 42.6818C155.172 42.0152 156.103 41.1364 156.755 40.0455C157.422 38.9545 157.755 37.7652 157.755 36.4773V32.3636C157.497 32.5758 157.058 32.7727 156.437 32.9545C155.831 33.1364 155.149 33.2955 154.391 33.4318C153.634 33.5682 152.884 33.6894 152.141 33.7955C151.399 33.9015 150.755 33.9924 150.21 34.0682C148.982 34.2348 147.884 34.5076 146.914 34.8864C145.944 35.2652 145.179 35.7955 144.619 36.4773C144.058 37.1439 143.778 38.0076 143.778 39.0682C143.778 40.5833 144.331 41.7273 145.437 42.5C146.543 43.2727 147.952 43.6591 149.664 43.6591ZM194.138 2.45454L206.252 39.0909H206.729L218.82 2.45454H228.093L211.684 49H201.275L184.888 2.45454H194.138ZM244.057 49.6818C240.648 49.6818 237.693 48.9318 235.193 47.4318C232.693 45.9318 230.754 43.8333 229.375 41.1364C228.012 38.4394 227.33 35.2879 227.33 31.6818C227.33 28.0758 228.012 24.9167 229.375 22.2045C230.754 19.4924 232.693 17.3864 235.193 15.8864C237.693 14.3864 240.648 13.6364 244.057 13.6364C247.466 13.6364 250.421 14.3864 252.921 15.8864C255.421 17.3864 257.352 19.4924 258.716 22.2045C260.095 24.9167 260.784 28.0758 260.784 31.6818C260.784 35.2879 260.095 38.4394 258.716 41.1364C257.352 43.8333 255.421 45.9318 252.921 47.4318C250.421 48.9318 247.466 49.6818 244.057 49.6818ZM244.102 43.0909C245.951 43.0909 247.496 42.5833 248.739 41.5682C249.981 40.5379 250.906 39.1591 251.512 37.4318C252.133 35.7045 252.443 33.7803 252.443 31.6591C252.443 29.5227 252.133 27.5909 251.512 25.8636C250.906 24.1212 249.981 22.7348 248.739 21.7045C247.496 20.6742 245.951 20.1591 244.102 20.1591C242.209 20.1591 240.633 20.6742 239.375 21.7045C238.133 22.7348 237.201 24.1212 236.58 25.8636C235.974 27.5909 235.671 29.5227 235.671 31.6591C235.671 33.7803 235.974 35.7045 236.58 37.4318C237.201 39.1591 238.133 40.5379 239.375 41.5682C240.633 42.5833 242.209 43.0909 244.102 43.0909ZM273.987 38.0455L273.965 28.1136H275.283L287.828 14.0909H297.442L282.01 31.2727H280.305L273.987 38.0455ZM266.487 49V2.45454H274.715V49H266.487ZM288.396 49L277.033 33.1136L282.578 27.3182L298.237 49H288.396ZM311.69 49.7045C309.478 49.7045 307.486 49.3106 305.713 48.5227C303.955 47.7197 302.561 46.5379 301.531 44.9773C300.516 43.4167 300.008 41.4924 300.008 39.2045C300.008 37.2348 300.372 35.6061 301.099 34.3182C301.827 33.0303 302.819 32 304.077 31.2273C305.334 30.4545 306.751 29.8712 308.327 29.4773C309.918 29.0682 311.561 28.7727 313.258 28.5909C315.304 28.3788 316.963 28.1894 318.236 28.0227C319.508 27.8409 320.433 27.5682 321.008 27.2045C321.599 26.8258 321.895 26.2424 321.895 25.4545V25.3182C321.895 23.6061 321.387 22.2803 320.372 21.3409C319.357 20.4015 317.895 19.9318 315.986 19.9318C313.971 19.9318 312.372 20.3712 311.19 21.25C310.024 22.1288 309.236 23.1667 308.827 24.3636L301.145 23.2727C301.751 21.1515 302.751 19.3788 304.145 17.9545C305.539 16.5151 307.243 15.4394 309.258 14.7273C311.274 14 313.501 13.6364 315.94 13.6364C317.622 13.6364 319.296 13.8333 320.963 14.2273C322.63 14.6212 324.152 15.2727 325.531 16.1818C326.91 17.0758 328.016 18.2955 328.849 19.8409C329.698 21.3864 330.122 23.3182 330.122 25.6364V49H322.213V44.2045H321.94C321.44 45.1742 320.736 46.0833 319.827 46.9318C318.933 47.7652 317.804 48.4394 316.44 48.9545C315.092 49.4545 313.508 49.7045 311.69 49.7045ZM313.827 43.6591C315.478 43.6591 316.91 43.3333 318.122 42.6818C319.334 42.0152 320.266 41.1364 320.918 40.0455C321.584 38.9545 321.918 37.7652 321.918 36.4773V32.3636C321.66 32.5758 321.221 32.7727 320.599 32.9545C319.993 33.1364 319.311 33.2955 318.554 33.4318C317.796 33.5682 317.046 33.6894 316.304 33.7955C315.561 33.9015 314.918 33.9924 314.372 34.0682C313.145 34.2348 312.046 34.5076 311.077 34.8864C310.107 35.2652 309.342 35.7955 308.781 36.4773C308.221 37.1439 307.94 38.0076 307.94 39.0682C307.94 40.5833 308.493 41.7273 309.599 42.5C310.705 43.2727 312.114 43.6591 313.827 43.6591ZM364.706 23.3182L357.206 24.1364C356.994 23.3788 356.622 22.6667 356.092 22C355.577 21.3333 354.88 20.7955 354.001 20.3864C353.122 19.9773 352.047 19.7727 350.774 19.7727C349.062 19.7727 347.622 20.1439 346.456 20.8864C345.304 21.6288 344.736 22.5909 344.751 23.7727C344.736 24.7879 345.107 25.6136 345.865 26.25C346.638 26.8864 347.91 27.4091 349.683 27.8182L355.638 29.0909C358.941 29.803 361.395 30.9318 363.001 32.4773C364.622 34.0227 365.441 36.0455 365.456 38.5455C365.441 40.7424 364.797 42.6818 363.524 44.3636C362.266 46.0303 360.516 47.3333 358.274 48.2727C356.031 49.2121 353.456 49.6818 350.547 49.6818C346.274 49.6818 342.834 48.7879 340.228 47C337.622 45.197 336.069 42.6894 335.569 39.4773L343.592 38.7045C343.956 40.2803 344.728 41.4697 345.91 42.2727C347.092 43.0758 348.63 43.4773 350.524 43.4773C352.478 43.4773 354.047 43.0758 355.228 42.2727C356.425 41.4697 357.024 40.4773 357.024 39.2955C357.024 38.2955 356.638 37.4697 355.865 36.8182C355.107 36.1667 353.925 35.6667 352.319 35.3182L346.365 34.0682C343.016 33.3712 340.539 32.197 338.933 30.5455C337.327 28.8788 336.531 26.7727 336.547 24.2273C336.531 22.0758 337.115 20.2121 338.297 18.6364C339.494 17.0455 341.153 15.8182 343.274 14.9545C345.41 14.0758 347.872 13.6364 350.66 13.6364C354.751 13.6364 357.971 14.5076 360.319 16.25C362.683 17.9924 364.145 20.3485 364.706 23.3182ZM370.96 49V14.0909H379.187V49H370.96ZM375.096 9.13636C373.793 9.13636 372.672 8.70455 371.733 7.84091C370.793 6.96212 370.323 5.90909 370.323 4.68182C370.323 3.43939 370.793 2.38636 371.733 1.52272C372.672 0.643937 373.793 0.204544 375.096 0.204544C376.414 0.204544 377.536 0.643937 378.46 1.52272C379.399 2.38636 379.869 3.43939 379.869 4.68182C379.869 5.90909 379.399 6.96212 378.46 7.84091C377.536 8.70455 376.414 9.13636 375.096 9.13636ZM401.326 49V2.45454H409.758V41.9318H430.258V49H401.326ZM436.296 2.45454H446.614L460.432 36.1818H460.978L474.796 2.45454H485.114V49H477.023V17.0227H476.591L463.728 48.8636H457.682L444.819 16.9545H444.387V49H436.296V2.45454ZM518.311 15.25C518.099 13.2652 517.205 11.7197 515.63 10.6136C514.069 9.50757 512.039 8.95454 509.539 8.95454C507.781 8.95454 506.273 9.2197 505.016 9.75C503.758 10.2803 502.796 11 502.13 11.9091C501.463 12.8182 501.122 13.8561 501.107 15.0227C501.107 15.9924 501.327 16.8333 501.766 17.5455C502.22 18.2576 502.834 18.8636 503.607 19.3636C504.38 19.8485 505.236 20.2576 506.175 20.5909C507.114 20.9242 508.061 21.2045 509.016 21.4318L513.38 22.5227C515.137 22.9318 516.827 23.4848 518.448 24.1818C520.084 24.8788 521.546 25.7576 522.834 26.8182C524.137 27.8788 525.167 29.1591 525.925 30.6591C526.683 32.1591 527.061 33.9167 527.061 35.9318C527.061 38.6591 526.364 41.0606 524.97 43.1364C523.577 45.197 521.561 46.8106 518.925 47.9773C516.304 49.1288 513.13 49.7045 509.402 49.7045C505.781 49.7045 502.637 49.1439 499.97 48.0227C497.319 46.9015 495.243 45.2652 493.743 43.1136C492.258 40.9621 491.455 38.3409 491.334 35.25H499.63C499.751 36.8712 500.251 38.2197 501.13 39.2955C502.008 40.3712 503.152 41.1742 504.561 41.7045C505.986 42.2348 507.577 42.5 509.334 42.5C511.167 42.5 512.773 42.2273 514.152 41.6818C515.546 41.1212 516.637 40.3485 517.425 39.3636C518.213 38.3636 518.614 37.197 518.63 35.8636C518.614 34.6515 518.258 33.6515 517.561 32.8636C516.864 32.0606 515.887 31.3939 514.63 30.8636C513.387 30.3182 511.933 29.8333 510.266 29.4091L504.97 28.0455C501.137 27.0606 498.107 25.5682 495.88 23.5682C493.667 21.553 492.561 18.8788 492.561 15.5455C492.561 12.803 493.304 10.4015 494.789 8.34091C496.289 6.2803 498.327 4.68182 500.902 3.54545C503.478 2.39394 506.395 1.81818 509.652 1.81818C512.955 1.81818 515.849 2.39394 518.334 3.54545C520.834 4.68182 522.796 6.26515 524.22 8.29545C525.645 10.3106 526.38 12.6288 526.425 15.25H518.311Z" fill="#197A0A"/>
</svg>
