<svg width="27" height="25" viewBox="0 0 27 25" fill="none" xmlns="http://www.w3.org/2000/svg">
<path d="M4.59195 2.30172C5.11408 2.15933 5.66348 2.08333 6.23057 2.08333H20.769C21.3361 2.08333 21.8855 2.15933 22.4077 2.30172C21.7255 0.936857 20.3179 0 18.6921 0H8.3075C6.68174 0 5.27413 0.936857 4.59195 2.30172Z" fill="#3C3C43"/>
<path d="M0 12.5C0 10.1988 1.85974 8.33333 4.15385 8.33333H22.8462C25.1403 8.33333 27 10.1988 27 12.5V20.8333C27 23.1345 25.1403 25 22.8462 25H4.15385C1.85974 25 0 23.1345 0 20.8333V12.5Z" fill="#3C3C43"/>
<path d="M4.15365 6.25C3.58656 6.25 3.03716 6.32599 2.51502 6.46838C3.19721 5.10352 4.60482 4.16667 6.23057 4.16667H20.769C22.3948 4.16667 23.8024 5.10352 24.4846 6.46839C23.9625 6.326 23.4131 6.25 22.846 6.25H4.15365Z" fill="#3C3C43"/>
</svg>
