<svg width="289" height="61" viewBox="0 0 289 61" fill="none" xmlns="http://www.w3.org/2000/svg">
<path d="M0.590909 0.454544H10.9091L24.7273 34.1818H25.2727L39.0909 0.454544H49.4091V47H41.3182V15.0227H40.8864L28.0227 46.8636H21.9773L9.11364 14.9545H8.68182V47H0.590909V0.454544ZM72.4018 47.6818C68.9018 47.6818 65.8791 46.9545 63.3336 45.5C60.8033 44.0303 58.8564 41.9545 57.4927 39.2727C56.1291 36.5758 55.4473 33.4015 55.4473 29.75C55.4473 26.1591 56.1291 23.0076 57.4927 20.2955C58.8715 17.5682 60.7958 15.447 63.2655 13.9318C65.7352 12.4015 68.6367 11.6364 71.97 11.6364C74.1215 11.6364 76.1518 11.9848 78.0609 12.6818C79.9852 13.3636 81.6821 14.4242 83.1518 15.8636C84.6367 17.303 85.8033 19.1364 86.6518 21.3636C87.5003 23.5758 87.9245 26.2121 87.9245 29.2727V31.7955H59.3109V26.25H80.0382C80.023 24.6742 79.6821 23.2727 79.0155 22.0455C78.3488 20.803 77.417 19.8258 76.22 19.1136C75.0382 18.4015 73.6594 18.0455 72.0836 18.0455C70.4018 18.0455 68.9245 18.4545 67.6518 19.2727C66.3791 20.0758 65.3867 21.1364 64.6745 22.4545C63.9776 23.7576 63.6215 25.1894 63.6064 26.75V31.5909C63.6064 33.6212 63.9776 35.3636 64.72 36.8182C65.4624 38.2576 66.5003 39.3636 67.8336 40.1364C69.167 40.8939 70.7276 41.2727 72.5155 41.2727C73.7124 41.2727 74.7958 41.1061 75.7655 40.7727C76.7352 40.4242 77.5761 39.9167 78.2882 39.25C79.0003 38.5833 79.5382 37.7576 79.9018 36.7727L87.5836 37.6364C87.0988 39.6667 86.1745 41.4394 84.8109 42.9545C83.4624 44.4545 81.7352 45.6212 79.6291 46.4545C77.523 47.2727 75.1139 47.6818 72.4018 47.6818ZM101.832 26.5455V47H93.6048V12.0909H101.468V18.0227H101.878C102.681 16.0682 103.961 14.5152 105.718 13.3636C107.491 12.2121 109.681 11.6364 112.287 11.6364C114.696 11.6364 116.794 12.1515 118.582 13.1818C120.385 14.2121 121.779 15.7045 122.764 17.6591C123.764 19.6136 124.256 21.9848 124.241 24.7727V47H116.014V26.0455C116.014 23.7121 115.408 21.8864 114.196 20.5682C112.999 19.25 111.34 18.5909 109.218 18.5909C107.779 18.5909 106.499 18.9091 105.378 19.5455C104.271 20.1667 103.4 21.0682 102.764 22.25C102.143 23.4318 101.832 24.8636 101.832 26.5455ZM146.507 60.8182C143.552 60.8182 141.014 60.4167 138.893 59.6136C136.772 58.8258 135.067 57.7652 133.779 56.4318C132.491 55.0985 131.598 53.6212 131.098 52L138.507 50.2045C138.84 50.8864 139.325 51.5606 139.961 52.2273C140.598 52.9091 141.454 53.4697 142.529 53.9091C143.62 54.3636 144.991 54.5909 146.643 54.5909C148.976 54.5909 150.908 54.0227 152.438 52.8864C153.969 51.7652 154.734 49.9167 154.734 47.3409V40.7273H154.325C153.901 41.5758 153.279 42.447 152.461 43.3409C151.658 44.2348 150.59 44.9848 149.257 45.5909C147.938 46.197 146.279 46.5 144.279 46.5C141.598 46.5 139.166 45.8712 136.984 44.6136C134.817 43.3409 133.09 41.447 131.802 38.9318C130.529 36.4015 129.893 33.2348 129.893 29.4318C129.893 25.5985 130.529 22.3636 131.802 19.7273C133.09 17.0758 134.825 15.0682 137.007 13.7045C139.188 12.3258 141.62 11.6364 144.302 11.6364C146.348 11.6364 148.029 11.9848 149.348 12.6818C150.681 13.3636 151.741 14.1894 152.529 15.1591C153.317 16.1136 153.916 17.0152 154.325 17.8636H154.779V12.0909H162.893V47.5682C162.893 50.553 162.181 53.0227 160.757 54.9773C159.332 56.9318 157.385 58.3939 154.916 59.3636C152.446 60.3333 149.643 60.8182 146.507 60.8182ZM146.575 40.0455C148.317 40.0455 149.802 39.6212 151.029 38.7727C152.257 37.9242 153.188 36.7045 153.825 35.1136C154.461 33.5227 154.779 31.6136 154.779 29.3864C154.779 27.1894 154.461 25.2652 153.825 23.6136C153.204 21.9621 152.279 20.6818 151.052 19.7727C149.84 18.8485 148.348 18.3864 146.575 18.3864C144.741 18.3864 143.211 18.8636 141.984 19.8182C140.757 20.7727 139.832 22.0833 139.211 23.75C138.59 25.4015 138.279 27.2803 138.279 29.3864C138.279 31.5227 138.59 33.3939 139.211 35C139.848 36.5909 140.779 37.8333 142.007 38.7273C143.249 39.6061 144.772 40.0455 146.575 40.0455ZM185.499 47.6818C181.999 47.6818 178.977 46.9545 176.431 45.5C173.901 44.0303 171.954 41.9545 170.59 39.2727C169.227 36.5758 168.545 33.4015 168.545 29.75C168.545 26.1591 169.227 23.0076 170.59 20.2955C171.969 17.5682 173.893 15.447 176.363 13.9318C178.833 12.4015 181.734 11.6364 185.068 11.6364C187.219 11.6364 189.249 11.9848 191.158 12.6818C193.083 13.3636 194.78 14.4242 196.249 15.8636C197.734 17.303 198.901 19.1364 199.749 21.3636C200.598 23.5758 201.022 26.2121 201.022 29.2727V31.7955H172.408V26.25H193.136C193.121 24.6742 192.78 23.2727 192.113 22.0455C191.446 20.803 190.514 19.8258 189.318 19.1136C188.136 18.4015 186.757 18.0455 185.181 18.0455C183.499 18.0455 182.022 18.4545 180.749 19.2727C179.477 20.0758 178.484 21.1364 177.772 22.4545C177.075 23.7576 176.719 25.1894 176.704 26.75V31.5909C176.704 33.6212 177.075 35.3636 177.818 36.8182C178.56 38.2576 179.598 39.3636 180.931 40.1364C182.264 40.8939 183.825 41.2727 185.613 41.2727C186.81 41.2727 187.893 41.1061 188.863 40.7727C189.833 40.4242 190.674 39.9167 191.386 39.25C192.098 38.5833 192.636 37.7576 192.999 36.7727L200.681 37.6364C200.196 39.6667 199.272 41.4394 197.908 42.9545C196.56 44.4545 194.833 45.6212 192.727 46.4545C190.621 47.2727 188.211 47.6818 185.499 47.6818ZM214.93 26.5455V47H206.702V12.0909H214.566V18.0227H214.975C215.778 16.0682 217.058 14.5152 218.816 13.3636C220.589 12.2121 222.778 11.6364 225.384 11.6364C227.793 11.6364 229.892 12.1515 231.68 13.1818C233.483 14.2121 234.877 15.7045 235.861 17.6591C236.861 19.6136 237.354 21.9848 237.339 24.7727V47H229.111V26.0455C229.111 23.7121 228.505 21.8864 227.293 20.5682C226.096 19.25 224.437 18.5909 222.316 18.5909C220.877 18.5909 219.596 18.9091 218.475 19.5455C217.369 20.1667 216.498 21.0682 215.861 22.25C215.24 23.4318 214.93 24.8636 214.93 26.5455ZM254.468 47.7045C252.256 47.7045 250.263 47.3106 248.49 46.5227C246.733 45.7197 245.339 44.5379 244.309 42.9773C243.293 41.4167 242.786 39.4924 242.786 37.2045C242.786 35.2348 243.15 33.6061 243.877 32.3182C244.604 31.0303 245.597 30 246.854 29.2273C248.112 28.4545 249.528 27.8712 251.104 27.4773C252.695 27.0682 254.339 26.7727 256.036 26.5909C258.081 26.3788 259.74 26.1894 261.013 26.0227C262.286 25.8409 263.21 25.5682 263.786 25.2045C264.377 24.8258 264.672 24.2424 264.672 23.4545V23.3182C264.672 21.6061 264.165 20.2803 263.15 19.3409C262.134 18.4015 260.672 17.9318 258.763 17.9318C256.748 17.9318 255.15 18.3712 253.968 19.25C252.801 20.1288 252.013 21.1667 251.604 22.3636L243.922 21.2727C244.528 19.1515 245.528 17.3788 246.922 15.9545C248.316 14.5151 250.021 13.4394 252.036 12.7273C254.051 12 256.278 11.6364 258.718 11.6364C260.4 11.6364 262.074 11.8333 263.74 12.2273C265.407 12.6212 266.93 13.2727 268.309 14.1818C269.687 15.0758 270.793 16.2955 271.627 17.8409C272.475 19.3864 272.9 21.3182 272.9 23.6364V47H264.99V42.2045H264.718C264.218 43.1742 263.513 44.0833 262.604 44.9318C261.71 45.7652 260.581 46.4394 259.218 46.9545C257.869 47.4545 256.286 47.7045 254.468 47.7045ZM256.604 41.6591C258.256 41.6591 259.687 41.3333 260.9 40.6818C262.112 40.0152 263.043 39.1364 263.695 38.0455C264.362 36.9545 264.695 35.7652 264.695 34.4773V30.3636C264.437 30.5758 263.998 30.7727 263.377 30.9545C262.771 31.1364 262.089 31.2955 261.331 31.4318C260.574 31.5682 259.824 31.6894 259.081 31.7955C258.339 31.9015 257.695 31.9924 257.15 32.0682C255.922 32.2348 254.824 32.5076 253.854 32.8864C252.884 33.2652 252.119 33.7955 251.559 34.4773C250.998 35.1439 250.718 36.0076 250.718 37.0682C250.718 38.5833 251.271 39.7273 252.377 40.5C253.483 41.2727 254.892 41.6591 256.604 41.6591ZM288.12 0.454544V47H279.892V0.454544H288.12Z" fill="#197A0A"/>
</svg>
