<svg width="20" height="18" viewBox="0 0 20 18" fill="none" xmlns="http://www.w3.org/2000/svg">
<path d="M9 1.71548C7.48455 0.745408 5.68246 0.182617 3.75 0.182617C2.61178 0.182617 1.51756 0.377972 0.500065 0.737604C0.200372 0.843531 0 1.12687 0 1.44473V15.6947C0 15.9382 0.118178 16.1665 0.316959 16.3071C0.51574 16.4477 0.770387 16.483 0.999935 16.4019C1.85911 16.0982 2.78441 15.9326 3.75 15.9326C5.74502 15.9326 7.57325 16.6399 9 17.8183V1.71548Z" fill="#293988"/>
<path d="M10.5 17.8183C11.9268 16.6399 13.755 15.9326 15.75 15.9326C16.7156 15.9326 17.6409 16.0982 18.5001 16.4019C18.7296 16.483 18.9843 16.4477 19.183 16.3071C19.3818 16.1665 19.5 15.9382 19.5 15.6947V1.44473C19.5 1.12687 19.2996 0.843531 18.9999 0.737604C17.9824 0.377972 16.8882 0.182617 15.75 0.182617C13.8175 0.182617 12.0155 0.745408 10.5 1.71548V17.8183Z" fill="#293988"/>
</svg>
