<svg width="20" height="20" viewBox="0 0 20 20" fill="none" xmlns="http://www.w3.org/2000/svg">
<path opacity="0.2" d="M16.875 3.75H3.125C2.95924 3.75 2.80027 3.81585 2.68306 3.93306C2.56585 4.05027 2.5 4.20924 2.5 4.375V15.625C2.5 15.7908 2.56585 15.9497 2.68306 16.0669C2.80027 16.1842 2.95924 16.25 3.125 16.25H4.6952V16.2497C5.08338 15.153 5.8019 14.2036 6.7519 13.5321C7.70189 12.8606 8.83665 12.5 10 12.5C9.38193 12.5 8.77775 12.3167 8.26384 11.9733C7.74994 11.63 7.3494 11.1419 7.11288 10.5709C6.87635 9.99987 6.81447 9.37153 6.93505 8.76534C7.05562 8.15915 7.35325 7.60233 7.79029 7.16529C8.22733 6.72825 8.78415 6.43062 9.39034 6.31005C9.99653 6.18947 10.6249 6.25135 11.1959 6.48788C11.7669 6.7244 12.255 7.12494 12.5983 7.63884C12.9417 8.15275 13.125 8.75693 13.125 9.375C13.125 10.2038 12.7958 10.9987 12.2097 11.5847C11.6237 12.1708 10.8288 12.5 10 12.5C11.1634 12.5 12.2981 12.8606 13.2481 13.5321C14.1981 14.2036 14.9166 15.153 15.3048 16.2497V16.25H16.875C17.0408 16.25 17.1997 16.1842 17.3169 16.0669C17.4342 15.9497 17.5 15.7908 17.5 15.625V4.375C17.5 4.20924 17.4342 4.05027 17.3169 3.93306C17.1997 3.81585 17.0408 3.75 16.875 3.75Z" fill="#3C3C43"/>
<path d="M10 12.5C11.7259 12.5 13.125 11.1009 13.125 9.375C13.125 7.64911 11.7259 6.25 10 6.25C8.27411 6.25 6.875 7.64911 6.875 9.375C6.875 11.1009 8.27411 12.5 10 12.5Z" stroke="#3C3C43" stroke-width="1.5" stroke-linecap="round" stroke-linejoin="round"/>
<path d="M16.875 3.75H3.125C2.77982 3.75 2.5 4.02982 2.5 4.375V15.625C2.5 15.9702 2.77982 16.25 3.125 16.25H16.875C17.2202 16.25 17.5 15.9702 17.5 15.625V4.375C17.5 4.02982 17.2202 3.75 16.875 3.75Z" stroke="#3C3C43" stroke-width="1.5" stroke-linecap="round" stroke-linejoin="round"/>
<path d="M4.69531 16.2496C5.08349 15.153 5.80202 14.2035 6.75201 13.5321C7.702 12.8606 8.83676 12.5 10.0001 12.5C11.1635 12.5 12.2982 12.8606 13.2482 13.5321C14.1982 14.2035 14.9167 15.153 15.3049 16.2496" stroke="#3C3C43" stroke-width="1.5" stroke-linecap="round" stroke-linejoin="round"/>
</svg>
