<svg width="32" height="32" viewBox="0 0 32 32" fill="none" xmlns="http://www.w3.org/2000/svg">
<path opacity="0.2" d="M5.27902 5.3735C5.12999 5.33003 4.97288 5.32186 4.82014 5.34963C4.6674 5.3774 4.52322 5.44035 4.39902 5.5335C4.27483 5.62664 4.17402 5.74743 4.1046 5.88628C4.03517 6.02514 3.99902 6.17825 3.99902 6.3335V23.6668C3.99902 23.8221 4.03517 23.9752 4.1046 24.114C4.17402 24.2529 4.27483 24.3737 4.39902 24.4668C4.52322 24.56 4.6674 24.6229 4.82014 24.6507C4.97288 24.6785 5.12999 24.6703 5.27902 24.6268L16.9998 21.2083V8.79204L5.27902 5.3735Z" fill="#8A38F5"/>
<path d="M3.99902 6.3335V23.6668C3.99902 23.8221 4.03517 23.9752 4.1046 24.114C4.17402 24.2529 4.27483 24.3737 4.39902 24.4668C4.52322 24.56 4.6674 24.6229 4.82014 24.6507C4.97288 24.6785 5.12999 24.6703 5.27902 24.6268L27.279 18.2102C27.4867 18.1496 27.6692 18.0233 27.799 17.8502C27.9288 17.6771 27.999 17.4665 27.999 17.2502V12.7502C27.999 12.5338 27.9288 12.3233 27.799 12.1502C27.6692 11.9771 27.4867 11.8507 27.279 11.7902L5.27902 5.3735C5.12999 5.33003 4.97288 5.32186 4.82014 5.34963C4.6674 5.3774 4.52322 5.44035 4.39902 5.5335C4.27483 5.62664 4.17402 5.74743 4.1046 5.88628C4.03517 6.02514 3.99902 6.17825 3.99902 6.3335V6.3335Z" stroke="#8A38F5" stroke-width="2" stroke-linecap="round" stroke-linejoin="round"/>
<path d="M23 19.4582V24.0001C23 24.2653 22.8946 24.5197 22.7071 24.7072C22.5196 24.8948 22.2652 25.0001 22 25.0001H18C17.7348 25.0001 17.4804 24.8948 17.2929 24.7072C17.1054 24.5197 17 24.2653 17 24.0001V8.79199" stroke="#8A38F5" stroke-width="2" stroke-linecap="round" stroke-linejoin="round"/>
</svg>
