<svg width="100" height="34" viewBox="0 0 100 34" fill="none" xmlns="http://www.w3.org/2000/svg">
<path d="M12.3159 0.682617H13.2052C16.2924 0.749731 19.3293 1.99135 21.5106 4.18934C20.7052 5.01149 19.883 5.80008 19.0944 6.62223C17.8696 5.51484 16.3931 4.65914 14.7824 4.35712C12.3998 3.85377 9.8327 4.30679 7.83606 5.66585C5.65485 7.09203 4.17834 9.50814 3.85955 12.092C3.5072 14.6424 4.22868 17.327 5.88975 19.3068C7.48371 21.2364 9.9166 22.4444 12.4334 22.5283C14.7824 22.6625 17.232 21.9411 18.9434 20.2968C20.2857 19.139 20.9065 17.3773 21.1079 15.6659C18.3226 15.6659 15.5374 15.6827 12.7522 15.6659V12.2095H24.4804C25.0844 15.9176 24.2119 20.0954 21.3931 22.7464C19.5139 24.6256 16.9132 25.733 14.2622 25.9511C11.6951 26.2028 9.04411 25.7162 6.76223 24.4746C4.02733 23.0149 1.84613 20.5484 0.7723 17.6457C-0.234411 14.978 -0.25119 11.9578 0.688408 9.27324C1.54411 6.82357 3.18841 4.65914 5.3025 3.14907C7.3327 1.65577 9.79915 0.833624 12.3159 0.682617Z" fill="#3780FF"/>
<path d="M79.5977 1.55566H83.1882V25.5154C81.997 25.5154 80.7889 25.5322 79.5977 25.4986C79.6144 17.5288 79.5977 9.54224 79.5977 1.55566V1.55566Z" fill="#38B137"/>
<path d="M32.4667 9.86075C34.6815 9.44129 37.0808 9.91109 38.9097 11.2366C40.5707 12.4111 41.7285 14.2567 42.0808 16.2702C42.5338 18.6024 41.9634 21.1527 40.4533 22.9983C38.8258 25.0621 36.158 26.1695 33.5573 26.0017C31.1748 25.8675 28.8593 24.6762 27.4499 22.7299C25.856 20.5822 25.47 17.6292 26.3425 15.1124C27.215 12.4111 29.6815 10.3473 32.4667 9.86075V9.86075ZM32.9701 13.0487C32.064 13.2836 31.2251 13.8037 30.6211 14.542C28.9935 16.4883 29.0942 19.6594 30.8895 21.4715C31.913 22.5118 33.4566 22.9983 34.8828 22.7131C36.2083 22.4782 37.366 21.589 38.0036 20.4145C39.111 18.4178 38.7922 15.6661 37.0976 14.1057C36.007 13.099 34.413 12.6795 32.9701 13.0487Z" fill="#FA3913"/>
<path d="M50.2524 9.86101C52.786 9.37443 55.5544 10.0791 57.4504 11.8577C60.5376 14.6261 60.8732 19.8107 58.239 22.9986C56.645 25.012 54.0611 26.1194 51.5108 26.0019C49.0779 25.9348 46.6786 24.7268 45.2357 22.7301C43.6081 20.5321 43.2558 17.512 44.1786 14.9449C45.1014 12.3275 47.5175 10.3308 50.2524 9.86101V9.86101ZM50.7558 13.0489C49.8497 13.2838 49.0108 13.804 48.4068 14.5254C46.7961 16.4382 46.8632 19.559 48.5914 21.3878C49.6148 22.4784 51.2088 23.0154 52.6853 22.7133C53.994 22.4617 55.1685 21.5892 55.8061 20.4147C56.8967 18.4013 56.5779 15.6496 54.8665 14.0892C53.7759 13.0825 52.182 12.6798 50.7558 13.0489Z" fill="#FCBD06"/>
<path d="M65.335 10.8337C67.2646 9.62566 69.8317 9.29009 71.9122 10.3304C72.5666 10.6156 73.1035 11.1022 73.6236 11.5887C73.6404 11.1357 73.6236 10.6659 73.6404 10.1961C74.7646 10.2129 75.8887 10.1961 77.0297 10.2129V25.0115C77.0129 27.2431 76.4424 29.6088 74.8317 31.2364C73.0699 33.0317 70.3686 33.5854 67.9357 33.2162C65.335 32.8303 63.0699 30.9344 62.0632 28.535C63.0699 28.0484 64.127 27.6625 65.1672 27.2095C65.7545 28.5854 66.9458 29.7599 68.4391 30.0283C69.9323 30.2968 71.6605 29.9276 72.6337 28.686C73.674 27.4109 73.674 25.6659 73.6236 24.1055C72.8518 24.8605 71.9625 25.5317 70.8887 25.7834C68.5565 26.4377 65.9894 25.6323 64.1941 24.0552C62.382 22.478 61.3082 20.0451 61.4089 17.629C61.4592 14.8941 63.0028 12.2599 65.335 10.8337V10.8337ZM68.8082 12.9814C67.7847 13.1491 66.8283 13.7196 66.174 14.5082C64.5968 16.3874 64.5968 19.3907 66.1907 21.2364C67.0968 22.327 68.5565 22.931 69.9659 22.78C71.2914 22.6458 72.5162 21.8068 73.1706 20.6491C74.278 18.686 74.0934 16.0183 72.6001 14.3069C71.6773 13.2498 70.2008 12.7297 68.8082 12.9814V12.9814Z" fill="#3780FF"/>
<path d="M87.501 11.6891C89.5144 9.80995 92.6185 9.17237 95.2024 10.1623C97.652 11.0851 99.2124 13.4173 100.001 15.8167C96.3601 17.3267 92.7359 18.82 89.095 20.3301C89.5983 21.2865 90.3701 22.159 91.4104 22.5113C92.8701 23.0314 94.6151 22.8469 95.84 21.8737C96.3265 21.5046 96.7124 21.018 97.0816 20.5482C98.0044 21.169 98.9272 21.773 99.85 22.3938C98.5413 24.3569 96.3433 25.7328 93.9775 25.9509C91.3601 26.2697 88.5748 25.263 86.8802 23.216C84.095 19.9945 84.3634 14.5918 87.501 11.6891V11.6891ZM89.2963 14.7932C88.7258 15.6153 88.4909 16.622 88.5077 17.612C90.9406 16.6053 93.3735 15.5985 95.8064 14.5751C95.4037 13.6355 94.4306 13.065 93.4406 12.914C91.8467 12.6287 90.1856 13.4844 89.2963 14.7932V14.7932Z" fill="#FA3913"/>
</svg>
