<svg width="100" height="22" viewBox="0 0 100 22" fill="none" xmlns="http://www.w3.org/2000/svg">
<path d="M41.9125 5.08646C40.1069 5.08646 38.0533 5.92343 36.7986 7.59919L36.7994 7.59596L36.7986 7.59676L36.7994 5.34949H32.4927V21.0329H36.7986V12.1089C36.7986 10.5028 38.0438 8.79535 40.3497 8.79535C42.1315 8.79535 43.9756 10.0349 43.9756 12.1089V21.0329H48.2822V11.3109C48.2822 7.70363 45.7014 5.08646 41.9125 5.08646V5.08646ZM78.8909 5.3503L74.9976 16.0333L71.1042 5.3503H66.1846L72.6376 21.0287H77.3568L83.8097 5.3503H78.8909ZM19.6358 10.0749C20.3691 9.0901 21.5374 8.51192 22.9483 8.51192C24.5002 8.51192 25.6776 9.39818 26.2863 10.7065L18.7622 13.8281C18.5568 12.2261 18.9667 10.9731 19.6358 10.0749V10.0749ZM27.9095 16.2111C26.097 17.5525 25.0614 17.8725 23.4085 17.8725C21.921 17.8725 20.7564 17.4107 19.9354 16.6008L30.9455 12.0333C30.705 10.3313 30.059 8.81071 29.065 7.65454C27.6184 5.97454 25.4772 5.08565 22.8701 5.08565C18.1347 5.08565 14.564 8.57899 14.564 13.1931C14.564 17.9269 18.1432 21.2996 23.3448 21.2996C26.2592 21.2996 29.239 19.9184 30.6329 18.3047L27.9095 16.2111ZM14.1535 17.0786H4.36545V0.65918H0V21.0329H14.1535V17.0786ZM91.5428 8.77616C89.1378 8.77616 87.3913 10.5988 87.3913 13.1915C87.3913 15.6671 89.2412 17.6069 91.6006 17.6069C94.0065 17.6069 95.7519 15.7341 95.7519 13.1915C95.7519 10.716 93.9028 8.77616 91.5428 8.77616V8.77616ZM91.5428 21.2974C86.8329 21.2974 83.1424 17.7885 83.1424 13.1915C83.1424 8.64606 86.8584 5.08565 91.6006 5.08565C96.3105 5.08565 100 8.59434 100 13.1915C100 17.736 96.2848 21.2972 91.5428 21.2972V21.2974ZM58.3855 8.77616C55.9804 8.77616 54.235 10.5988 54.235 13.1915C54.235 15.6671 56.084 17.6069 58.444 17.6069C60.8491 17.6069 62.5945 15.7341 62.5945 13.1915C62.5945 10.716 60.7455 8.77616 58.3855 8.77616ZM58.3855 21.2974C53.6756 21.2974 49.9861 17.7885 49.9861 13.1915C49.9861 8.64606 53.701 5.08565 58.444 5.08565C63.1531 5.08565 66.8434 8.59434 66.8434 13.1915C66.8434 17.736 63.1277 21.2972 58.3855 21.2972" fill="#E60012"/>
</svg>
