<svg width="100" height="22" viewBox="0 0 100 22" fill="none" xmlns="http://www.w3.org/2000/svg">
<path d="M99.9994 9.98245V8.22379H97.8155V5.48974L97.7419 5.51238L95.6907 6.14L95.6502 6.15229V8.22389H92.4126V7.06983C92.4126 6.53246 92.5327 6.12124 92.7695 5.84699C93.0047 5.57603 93.3411 5.43828 93.7701 5.43828C94.0785 5.43828 94.3978 5.51093 94.7191 5.65419L94.7997 5.69018V3.83807L94.7618 3.82414C94.462 3.71638 94.0543 3.66211 93.5488 3.66211C92.9118 3.66211 92.3331 3.80073 91.8283 4.07546C91.3232 4.35058 90.926 4.74333 90.6476 5.24268C90.3703 5.74145 90.2296 6.31751 90.2296 6.955V8.22379H88.7089V9.98245H90.2296V17.3914H92.4126V9.98245H95.6502V14.6907C95.6502 16.6298 96.5649 17.6124 98.3687 17.6124C98.6651 17.6124 98.9771 17.5777 99.2956 17.5097C99.6199 17.4398 99.8407 17.3701 99.9707 17.2956L99.9994 17.2786V15.5037L99.9106 15.5624C99.7921 15.6413 99.6446 15.7058 99.4717 15.7538C99.2979 15.8027 99.1528 15.8271 99.0404 15.8271C98.6179 15.8271 98.3052 15.7133 98.1113 15.4886C97.9151 15.2618 97.8156 14.8653 97.8156 14.3106V9.98245H99.9994ZM83.8338 15.8274C83.0414 15.8274 82.4167 15.5647 81.9765 15.0472C81.5335 14.527 81.3091 13.7854 81.3091 12.8432C81.3091 11.8711 81.5335 11.1103 81.9767 10.581C82.4172 10.0551 83.0359 9.78821 83.816 9.78821C84.5729 9.78821 85.1755 10.0431 85.6071 10.5462C86.0409 11.052 86.2611 11.8067 86.2611 12.7901C86.2611 13.7856 86.0541 14.5503 85.6458 15.0619C85.2404 15.5695 84.6308 15.8274 83.8338 15.8274V15.8274ZM83.9308 8.00294C82.4191 8.00294 81.2185 8.4459 80.3623 9.31952C79.5068 10.1932 79.0731 11.4023 79.0731 12.9136C79.0731 14.3489 79.4965 15.5035 80.3317 16.3446C81.1669 17.186 82.3035 17.6122 83.7098 17.6122C85.1751 17.6122 86.3519 17.1631 87.2076 16.2774C88.0633 15.3926 88.4967 14.1949 88.4967 12.719C88.4967 11.2612 88.09 10.0981 87.2873 9.26254C86.4843 8.42665 85.3549 8.00294 83.9308 8.00294V8.00294ZM75.5533 8.00294C74.525 8.00294 73.6744 8.26597 73.0247 8.78457C72.3709 9.30627 72.0393 9.99048 72.0393 10.8184C72.0393 11.2488 72.1109 11.6311 72.2518 11.9554C72.3935 12.2807 72.6128 12.5671 72.9041 12.8075C73.1933 13.046 73.6396 13.2958 74.2311 13.5499C74.7283 13.7545 75.0991 13.9275 75.3346 14.0639C75.5648 14.1976 75.7282 14.332 75.8205 14.4629C75.9102 14.591 75.9557 14.7662 75.9557 14.9825C75.9557 15.5985 75.4944 15.8981 74.5454 15.8981C74.1933 15.8981 73.7918 15.8246 73.3519 15.6797C72.9152 15.537 72.503 15.328 72.1298 15.06L72.0391 14.995V17.0968L72.0724 17.1123C72.3813 17.2549 72.7707 17.3751 73.2297 17.4697C73.6879 17.5644 74.1041 17.6126 74.4657 17.6126C75.5816 17.6126 76.4802 17.3483 77.1358 16.8266C77.7957 16.3013 78.1301 15.601 78.1301 14.7444C78.1301 14.1264 77.95 13.5965 77.5952 13.1691C77.2428 12.7452 76.6312 12.3561 75.7781 12.0121C75.0984 11.7393 74.663 11.5128 74.4833 11.339C74.3102 11.171 74.2223 10.9336 74.2223 10.6328C74.2223 10.3662 74.3308 10.1526 74.5536 9.97965C74.7781 9.80581 75.0906 9.7174 75.4826 9.7174C75.8463 9.7174 76.2185 9.77486 76.5886 9.88746C76.9584 10.0001 77.2833 10.1509 77.5544 10.3353L77.6436 10.3963V8.40256L77.6093 8.38786C77.3592 8.28058 77.0293 8.18877 76.6286 8.11429C76.2298 8.04028 75.868 8.00294 75.5533 8.00294V8.00294ZM66.3483 15.8274C65.5561 15.8274 64.9312 15.5647 64.491 15.0472C64.048 14.527 63.824 13.7856 63.824 12.8432C63.824 11.8711 64.0483 11.1103 64.4915 10.581C64.9317 10.0551 65.5503 9.78821 66.3308 9.78821C67.0874 9.78821 67.69 10.0431 68.1217 10.5462C68.5556 11.052 68.7757 11.8067 68.7757 12.7901C68.7757 13.7856 68.5685 14.5503 68.1603 15.0619C67.7549 15.5695 67.1456 15.8274 66.3483 15.8274V15.8274ZM66.4456 8.00294C64.9335 8.00294 63.7327 8.4459 62.8771 9.31952C62.0216 10.1932 61.5875 11.4023 61.5875 12.9136C61.5875 14.3495 62.0112 15.5035 62.8465 16.3446C63.6817 17.186 64.8182 17.6122 66.2245 17.6122C67.6896 17.6122 68.8667 17.1631 69.7224 16.2774C70.5778 15.3926 71.0115 14.1949 71.0115 12.719C71.0115 11.2612 70.6046 10.0981 69.8018 9.26254C68.9986 8.42665 67.8693 8.00294 66.4456 8.00294V8.00294ZM58.2738 9.81142V8.22379H56.1173V17.3912H58.2738V12.7017C58.2738 11.9043 58.4546 11.2492 58.8113 10.7544C59.1635 10.2655 59.6329 10.0178 60.206 10.0178C60.4002 10.0178 60.6182 10.0498 60.8544 10.1131C61.0881 10.1761 61.2574 10.2445 61.3572 10.3165L61.4478 10.3822V8.20812L61.4129 8.19313C61.2121 8.10781 60.928 8.06476 60.5685 8.06476C60.0266 8.06476 59.5417 8.23888 59.1263 8.58172C58.7617 8.88305 58.4982 9.29621 58.2967 9.81142H58.2738ZM52.2556 8.00294C51.2662 8.00294 50.3838 8.21509 49.6333 8.63328C48.8811 9.05243 48.2995 9.65084 47.9037 10.4118C47.5097 11.1709 47.3097 12.0575 47.3097 13.0464C47.3097 13.9125 47.5036 14.7074 47.887 15.408C48.2705 16.1097 48.8134 16.6587 49.5006 17.0394C50.1869 17.4197 50.98 17.6125 51.8582 17.6125C52.883 17.6125 53.758 17.4076 54.4595 17.0036L54.4878 16.9873V15.0117L54.3972 15.0778C54.0794 15.3093 53.7243 15.4941 53.3422 15.6272C52.9611 15.7602 52.6136 15.8274 52.3089 15.8274C51.4627 15.8274 50.7834 15.5627 50.2904 15.0407C49.7963 14.518 49.5457 13.7841 49.5457 12.8605C49.5457 11.9312 49.807 11.1784 50.3219 10.6229C50.8353 10.0691 51.5158 9.78821 52.3445 9.78821C53.0532 9.78821 53.7439 10.0282 54.3974 10.5022L54.4878 10.5679V8.48624L54.4586 8.46979C54.2127 8.33214 53.8773 8.21847 53.461 8.13228C53.0464 8.04628 52.6409 8.00294 52.2556 8.00294V8.00294ZM45.8245 8.22389H43.6681V17.3912H45.8245V8.22389V8.22389ZM44.7683 4.31856C44.4134 4.31856 44.1039 4.43938 43.8495 4.6788C43.5942 4.9189 43.4646 5.2212 43.4646 5.57797C43.4646 5.92912 43.5926 6.2259 43.8456 6.45962C44.0969 6.69265 44.4074 6.81077 44.7684 6.81077C45.1293 6.81077 45.441 6.69265 45.6953 6.46C45.9513 6.2259 46.0811 5.92921 46.0811 5.57797C46.0811 5.23368 45.9548 4.93448 45.7059 4.68848C45.4572 4.44296 45.1416 4.31856 44.7683 4.31856ZM39.3879 7.54751V17.3912H41.5886V4.59919H38.5427L34.6712 14.1007L30.9141 4.59919H27.7441V17.3911H29.8122V7.54654H29.8833L33.8507 17.3912H35.4114L39.3169 7.54751H39.3879V7.54751Z" fill="#706D6E"/>
<path d="M10.1445 10.4697H0V0.325195H10.1445V10.4697Z" fill="#F1511B"/>
<path d="M21.3454 10.4697H11.2012V0.325195H21.3454V10.4697Z" fill="#80CC28"/>
<path d="M10.1442 21.6736H0V11.5293H10.1442V21.6736Z" fill="#00ADEF"/>
<path d="M21.3454 21.6736H11.2012V11.5293H21.3454V21.6736Z" fill="#FBBC09"/>
</svg>
