<svg width="100" height="28" viewBox="0 0 100 28" fill="none" xmlns="http://www.w3.org/2000/svg">
<path d="M13.7503 25.7709C12.246 26.0351 10.7152 26.1143 9.13174 26.3252L4.30186 12.1791V26.9324C2.79756 27.0907 1.4252 27.3018 0 27.5129V0.487305H4.01172L9.50117 15.8214V0.487305H13.7503V25.7709ZM22.0639 10.3844C23.7003 10.3844 26.2075 10.3052 27.7118 10.3052V14.5279C25.8379 14.5279 23.6475 14.5279 22.0639 14.6071V20.8885C24.5448 20.7302 27.0257 20.5189 29.5328 20.4397V24.5039L17.841 25.4278V0.487305H29.5328V4.71007H22.0639V10.3844ZM45.2361 4.71017H40.8551V24.1348C39.4299 24.1348 38.0047 24.1348 36.6325 24.1875V4.71017H32.2515V0.487305H45.2363L45.2361 4.71017V4.71017ZM52.098 10.0942H57.878V14.3168H52.098V23.8973H47.9542V0.487305H59.7519V4.71007H52.098V10.0942ZM66.6138 20.2023C69.0155 20.2549 71.4435 20.44 73.7925 20.5717V24.7417C70.0185 24.5041 66.2443 24.2668 62.3911 24.1875V0.487305H66.6138V20.2023ZM77.3554 25.0321C78.7014 25.1114 80.1266 25.1906 81.4989 25.3487V0.487305H77.3554V25.0321ZM100 0.487305L94.6423 13.3404L100 27.5129C98.4163 27.3018 96.8328 27.0115 95.2492 26.7475L92.2143 18.9356L89.1267 26.1143C87.5956 25.8502 86.1177 25.771 84.5872 25.5598L90.0239 13.1819L85.1148 0.487305H89.6541L92.4253 7.58683L95.3813 0.487305H100Z" fill="#D81F26"/>
</svg>
