<svg width="100" height="26" viewBox="0 0 100 26" fill="none" xmlns="http://www.w3.org/2000/svg">
<path fill-rule="evenodd" clip-rule="evenodd" d="M31.9922 20.2841L33.2402 17.3841C34.5882 18.3921 36.3842 18.9161 38.1562 18.9161C39.4642 18.9161 40.2922 18.4121 40.2922 17.6481C40.2722 15.5121 32.4562 17.1841 32.3962 11.8281C32.3762 9.10813 34.7922 7.01213 38.2162 7.01213C40.2522 7.01213 42.2842 7.51613 43.7362 8.66413L42.5682 11.6241C41.2402 10.7761 39.5882 10.1721 38.0162 10.1721C36.9482 10.1721 36.2442 10.6761 36.2442 11.3201C36.2642 13.4161 44.1402 12.2681 44.2202 17.3841C44.2202 20.1641 41.8642 22.1201 38.4802 22.1201C36.0002 22.1161 33.7242 21.5321 31.9922 20.2841V20.2841ZM79.9162 16.3361C79.2922 17.4241 78.1242 18.1681 76.7722 18.1681C74.7762 18.1681 73.1682 16.5561 73.1682 14.5641C73.1682 12.5721 74.7802 10.9601 76.7722 10.9601C78.1202 10.9601 79.2922 11.7041 79.9162 12.7921L83.3602 10.8801C82.0722 8.58413 79.5922 7.01213 76.7722 7.01213C72.6002 7.01213 69.2162 10.3961 69.2162 14.5681C69.2162 18.7401 72.6002 22.1241 76.7722 22.1241C79.6122 22.1241 82.0722 20.5721 83.3602 18.2561L79.9162 16.3361ZM45.9522 0.744141H50.2642V21.8361H45.9522V0.744141ZM85.0522 0.744141V21.8361H89.3642V15.5081L94.4802 21.8361H100L93.4922 14.3201L99.5162 7.30813H94.2362L89.3602 13.1281V0.744141H85.0522Z" fill="black"/>
<path d="M63.0756 16.3758C62.4516 17.4038 61.1636 18.1678 59.7116 18.1678C57.7156 18.1678 56.1076 16.5558 56.1076 14.5638C56.1076 12.5718 57.7196 10.9598 59.7116 10.9598C61.1636 10.9598 62.4516 11.7638 63.0756 12.8118V16.3758ZM63.0756 7.31181V9.02381C62.3716 7.83581 60.6196 7.00781 58.7836 7.00781C54.9956 7.00781 52.0156 10.3518 52.0156 14.5438C52.0156 18.7358 54.9956 22.1198 58.7836 22.1198C60.6156 22.1198 62.3676 21.2958 63.0756 20.1038V21.8158H67.3876V7.31181H63.0756Z" fill="black"/>
<path fill-rule="evenodd" clip-rule="evenodd" d="M5.33953 16.3553C5.33953 17.8273 4.15153 19.0153 2.67953 19.0153C1.20753 19.0153 0.0195312 17.8233 0.0195312 16.3553C0.0195312 14.8873 1.20753 13.6953 2.67953 13.6953H5.33953V16.3553ZM6.66753 16.3553C6.66753 14.8833 7.85553 13.6953 9.32753 13.6953C10.7995 13.6953 11.9875 14.8833 11.9875 16.3553V23.0033C11.9875 24.4753 10.7995 25.6633 9.32753 25.6633C7.85553 25.6633 6.66753 24.4753 6.66753 23.0033V16.3553Z" fill="#E01E5A"/>
<path fill-rule="evenodd" clip-rule="evenodd" d="M9.328 5.67939C7.856 5.67939 6.668 4.49139 6.668 3.01938C6.668 1.54738 7.856 0.359375 9.328 0.359375C10.8 0.359375 11.988 1.54738 11.988 3.01938V5.67939H9.328ZM9.328 7.02739C10.8 7.02739 11.988 8.2154 11.988 9.6874C11.988 11.1594 10.8 12.3474 9.328 12.3474H2.66C1.188 12.3474 0 11.1554 0 9.6874C0 8.2194 1.188 7.02739 2.66 7.02739H9.328Z" fill="#36C5F0"/>
<path fill-rule="evenodd" clip-rule="evenodd" d="M19.9839 9.6874C19.9839 8.2154 21.1719 7.02739 22.6439 7.02739C24.1159 7.02739 25.3039 8.2154 25.3039 9.6874C25.3039 11.1594 24.1159 12.3474 22.6439 12.3474H19.9839V9.6874ZM18.6559 9.6874C18.6559 11.1594 17.4679 12.3474 15.9959 12.3474C14.5239 12.3474 13.3359 11.1594 13.3359 9.6874V3.01938C13.3359 1.54738 14.5239 0.359375 15.9959 0.359375C17.4679 0.359375 18.6559 1.54738 18.6559 3.01938V9.6874Z" fill="#2EB67D"/>
<path fill-rule="evenodd" clip-rule="evenodd" d="M15.9959 20.3433C17.4679 20.3433 18.6559 21.5313 18.6559 23.0033C18.6559 24.4753 17.4679 25.6633 15.9959 25.6633C14.5239 25.6633 13.3359 24.4753 13.3359 23.0033V20.3433H15.9959ZM15.9959 19.0153C14.5239 19.0153 13.3359 17.8273 13.3359 16.3553C13.3359 14.8833 14.5239 13.6953 15.9959 13.6953H22.6639C24.1359 13.6953 25.3239 14.8833 25.3239 16.3553C25.3239 17.8273 24.1359 19.0153 22.6639 19.0153H15.9959Z" fill="#ECB22E"/>
</svg>
