<svg width="100" height="23" viewBox="0 0 100 23" fill="none" xmlns="http://www.w3.org/2000/svg">
<path d="M39.8402 2.09277C41.3135 2.11296 42.807 2.11296 44.2804 2.09277C44.2602 3.40463 44.2602 4.73667 44.2804 6.04853C42.807 6.02835 41.3135 6.04853 39.82 6.02835C39.8604 4.71649 39.82 3.40463 39.8402 2.09277ZM17.4982 7.74386C20.5256 6.02835 24.9254 6.61364 26.9638 9.58046C28.2151 11.3363 28.5784 13.5564 28.5582 15.6554C25.0868 15.6756 21.6154 15.6554 18.1441 15.6756C18.3055 16.7452 18.7697 17.8754 19.7586 18.4406C21.1714 19.268 23.3915 19.0258 24.0979 17.3911C25.5308 17.3507 26.9436 17.3507 28.3766 17.3911C27.9326 19.0258 26.7418 20.4184 25.2483 21.1854C23.6337 22.0734 21.6962 22.2348 19.8999 21.9321C18.0028 21.6294 16.2469 20.5597 15.1772 18.9653C14.0066 17.27 13.7039 15.1104 13.9663 13.1124C14.2286 10.9125 15.5405 8.83371 17.4982 7.74386ZM19.8596 10.2667C18.8706 10.7309 18.3862 11.8005 18.1642 12.8298H24.0979C23.9768 12.0427 23.6942 11.2152 23.0888 10.6703C22.2411 9.84283 20.8889 9.82265 19.8596 10.2667ZM64.039 6.97692C66.4205 6.55309 69.0644 7.05765 70.901 8.71262C74.0293 11.4978 74.1706 16.8865 71.2643 19.8735C68.9635 22.2752 65.1087 22.7192 62.162 21.367C59.8814 20.3377 58.3274 18.0167 58.065 15.5545C57.9641 14.1215 58.0246 12.6482 58.6099 11.3161C59.4979 9.03553 61.6575 7.38057 64.039 6.97692ZM64.5436 10.2667C63.2923 10.7107 62.707 12.0629 62.5253 13.294C62.384 14.8279 62.4042 16.5636 63.3932 17.8351C64.4628 19.2277 66.8242 19.1873 67.8939 17.8149C68.7819 16.7049 68.9232 15.1912 68.8223 13.8188C68.7617 12.6078 68.3379 11.3161 67.3288 10.5694C66.5215 10.0245 65.4518 9.94374 64.5436 10.2667ZM79.8823 7.8044C81.3556 6.65401 83.4546 6.53291 85.1499 7.21911C86.3608 7.74386 87.269 8.81353 87.6929 10.0447C88.1773 11.3161 88.036 12.6886 88.036 14.0206C88.036 16.5636 88.0158 19.1066 88.0562 21.6294C86.5828 21.6496 85.1095 21.6294 83.616 21.6496V12.9307C83.616 12.184 83.3335 11.3767 82.7078 10.9125C81.7592 10.2667 80.3868 10.3878 79.5795 11.1951C78.9337 11.8409 78.6511 12.7693 78.6713 13.6573V21.6496C77.2182 21.6294 75.7449 21.6496 74.2917 21.6294C74.2917 16.826 74.3119 12.0225 74.2917 7.21911C75.7247 7.2393 77.1374 7.19893 78.5704 7.2393C78.5502 7.90532 78.5502 8.57134 78.53 9.23736C78.974 8.75298 79.3373 8.20805 79.8823 7.8044ZM0 7.25948H4.60161C5.53 10.3474 6.51894 13.4353 7.38679 16.5434C8.45646 13.4959 9.26376 10.3474 10.2729 7.25948C11.7462 7.2393 13.2397 7.25948 14.713 7.2393C13.0177 12.0427 11.3627 16.8461 9.68759 21.6496C8.15372 21.6496 6.61985 21.6294 5.08599 21.6697C3.33011 16.8865 1.77606 12.0225 0 7.25948ZM29.5673 7.2393H33.8057C33.7855 8.04659 33.8057 8.85389 33.7653 9.66119C34.1286 9.25754 34.3909 8.75298 34.7744 8.36951C35.723 7.32003 37.277 6.89619 38.6494 7.25948C38.6293 8.53097 38.6293 9.80247 38.6494 11.0538C37.5596 10.9327 36.3486 10.973 35.4203 11.6391C34.4313 12.3253 33.9873 13.5968 34.0075 14.7673C33.9873 17.0681 34.0075 19.3488 34.0075 21.6496C32.5342 21.6496 31.0407 21.6294 29.5673 21.6697C29.5875 16.8461 29.5875 12.0427 29.5673 7.2393ZM39.8402 7.25948C41.3337 7.2393 42.807 7.25948 44.3005 7.2393C44.2804 12.0427 44.3005 16.8461 44.3005 21.6496C42.8272 21.6294 41.3337 21.6496 39.8402 21.6496V7.25948ZM45.4913 7.2393C49.5076 7.25948 53.5239 7.2393 57.5201 7.25948C57.4797 8.36951 57.5201 9.45936 57.4999 10.5694C57.3586 10.852 57.1164 11.0538 56.9348 11.296C54.8762 13.5766 52.8579 15.9177 50.7589 18.1782C53.1203 18.2185 55.4816 18.1782 57.843 18.1984V21.6697C53.7258 21.6496 49.6085 21.6496 45.4913 21.6697V18.3195C47.6508 15.8976 49.7902 13.4959 51.9699 11.0941C52.0304 10.973 52.2928 10.852 52.1515 10.6905C49.9315 10.751 47.7114 10.6905 45.4913 10.7309V7.2393Z" fill="black"/>
<path d="M97.6218 0.0334394C98.3887 -0.00692553 99.1556 -0.00692553 99.9226 0.0132569C97.6218 4.81669 95.4017 9.66048 93.1615 14.4841H91.2845C90.2552 12.0622 89.0443 9.70085 87.9746 7.27895C88.7214 7.25877 89.4681 7.25877 90.2149 7.27895C90.8607 8.77245 91.6276 10.2054 92.2129 11.6989C94.0091 7.8037 95.8659 3.92866 97.6218 0.0334394Z" fill="#FF0000"/>
</svg>
