<svg width="100" height="24" viewBox="0 0 100 24" fill="none" xmlns="http://www.w3.org/2000/svg">
<path d="M15.9463 0.837891C15.967 0.837891 25.9238 0.838916 28.4072 1.50293C29.7819 1.87337 30.8622 2.95358 31.2275 4.32324C31.8922 6.80927 31.8926 12 31.8926 12C31.8926 12.0305 31.8902 17.197 31.2275 19.6758C30.8572 21.0506 29.777 22.1317 28.4072 22.4971C25.9238 23.1611 15.967 23.1621 15.9463 23.1621C15.9463 23.1621 5.97649 23.1618 3.48535 22.4971C2.11053 22.1266 1.03028 21.0456 0.665039 19.6758C0.00314732 17.2 1.1377e-05 12.0427 0 12C0 12 0.00033311 6.80927 0.665039 4.32324C1.03547 2.94858 2.1158 1.86824 3.48535 1.50293C5.97649 0.838224 15.9463 0.837891 15.9463 0.837891ZM12.7598 16.7842L21.0449 12L12.7598 7.21582V16.7842Z" fill="#FF0000"/>
<path fill-rule="evenodd" clip-rule="evenodd" d="M46.2918 21.1476C45.6626 20.7215 45.2111 20.0619 44.9473 19.164C44.6834 18.2659 44.5464 17.0736 44.5464 15.5819V13.5525C44.5464 12.0457 44.6986 10.8382 45.003 9.92482C45.3075 9.01167 45.7844 8.3471 46.4287 7.93097C47.0731 7.51497 47.9204 7.30192 48.9705 7.30192C50.0056 7.30192 50.8326 7.51497 51.4566 7.94119C52.0806 8.36729 52.5373 9.03199 52.8265 9.93504C53.1157 10.8382 53.2578 12.0457 53.2578 13.5474V15.5769C53.2578 17.0685 53.1157 18.2659 52.8366 19.1689C52.5576 20.072 52.1011 20.7367 51.4668 21.1527C50.8376 21.5687 49.9802 21.782 48.8995 21.782C47.7935 21.7868 46.9208 21.5738 46.2918 21.1476V21.1476ZM49.828 18.9559C50.0005 18.4992 50.0919 17.7534 50.0919 16.7236V12.3653C50.0919 11.3607 50.0056 10.6302 49.828 10.1634C49.6556 9.70168 49.346 9.46831 48.9046 9.46831C48.4785 9.46831 48.1791 9.70168 48.0015 10.1634C47.829 10.6251 47.7378 11.3607 47.7378 12.3653V16.7236C47.7378 17.7585 47.8189 18.5044 47.9863 18.9559C48.1538 19.4125 48.4582 19.6408 48.8996 19.6408C49.346 19.6408 49.6505 19.4125 49.828 18.9559V18.9559ZM94.729 15.6174V16.3228C94.729 17.2207 94.7545 17.8904 94.8103 18.3419C94.8609 18.7885 94.9726 19.1182 95.1401 19.3213C95.3075 19.5241 95.5662 19.6307 95.9162 19.6307C96.3882 19.6307 96.7128 19.4481 96.8853 19.0827C97.0579 18.7174 97.1541 18.1086 97.1695 17.2562L99.8837 17.4136C99.8991 17.5352 99.9041 17.7026 99.9041 17.9157C99.9041 19.2096 99.5489 20.1735 98.8437 20.8127C98.1384 21.452 97.139 21.7716 95.8453 21.7716C94.2927 21.7716 93.207 21.2846 92.583 20.3105C91.9589 19.3364 91.6495 17.8345 91.6495 15.7951V13.3547C91.6495 11.2542 91.9741 9.72698 92.6184 8.75811C93.2628 7.79409 94.3688 7.31202 95.9367 7.31202C97.0172 7.31202 97.8443 7.50999 98.4226 7.90566C99.001 8.30134 99.4069 8.91518 99.6454 9.75242C99.8788 10.5895 100.001 11.7464 100.001 13.2177V15.6124H94.729V15.6174ZM95.1298 9.73209C94.9725 9.93006 94.8661 10.2547 94.8102 10.7012C94.7544 11.1476 94.729 11.8327 94.729 12.7407V13.7454H97.0324V12.7407C97.0324 11.8426 97.002 11.1628 96.9411 10.7012C96.8802 10.2395 96.7687 9.90974 96.6113 9.722C96.454 9.53426 96.2054 9.43789 95.8706 9.43789C95.5357 9.43278 95.2872 9.53425 95.1298 9.73209ZM38.6306 15.3536L35.0488 2.42113H38.174L39.4272 8.28115C39.7469 9.72711 39.9802 10.9549 40.1324 11.9747H40.2237C40.3303 11.244 40.5637 10.0213 40.9291 8.30134L42.2278 2.41602H45.3531L41.7306 15.3536V21.5586H38.6306V15.3536ZM63.4201 7.57593V21.5535H60.9594L60.6854 19.8437H60.6194C59.9497 21.1375 58.9452 21.7819 57.6108 21.7819C56.6824 21.7819 55.9974 21.4774 55.5561 20.8686C55.1147 20.2597 54.8965 19.3111 54.8965 18.0173V7.57593H58.0421V17.8397C58.0421 18.4637 58.1081 18.9103 58.2451 19.174C58.3821 19.4378 58.6104 19.5748 58.93 19.5748C59.204 19.5748 59.4678 19.4935 59.7164 19.3263C59.9649 19.1588 60.1527 18.9457 60.2745 18.687V7.5758L63.4201 7.57593ZM79.5642 7.57593V21.5535H77.1035L76.8295 19.8437H76.7635C76.0938 21.1375 75.0893 21.7819 73.7549 21.7819C72.8265 21.7819 72.1415 21.4774 71.7002 20.8686C71.2588 20.2597 71.0406 19.3111 71.0406 18.0173V7.57593H74.1862V17.8397C74.1862 18.4637 74.2522 18.9103 74.3892 19.174C74.5261 19.4378 74.7544 19.5748 75.0741 19.5748C75.3481 19.5748 75.6119 19.4935 75.8605 19.3263C76.109 19.1588 76.2968 18.9457 76.4186 18.687V7.5758L79.5642 7.57593Z" fill="#282828"/>
<path fill-rule="evenodd" clip-rule="evenodd" d="M71.9748 4.95282H68.8495V21.5534H65.7698V4.95282H62.6445V2.42117H71.9697V4.95282H71.9748ZM89.9808 9.81316C89.7881 8.93043 89.4837 8.29116 89.0574 7.89548C88.6313 7.49967 88.0479 7.30183 87.3019 7.30183C86.7238 7.30183 86.1858 7.46414 85.6836 7.794C85.1813 8.11862 84.7957 8.54996 84.5217 9.08264H84.4964V1.71582H81.4624V21.5585H84.06L84.3796 20.2343H84.4457C84.6891 20.7062 85.0544 21.0766 85.5415 21.3504C86.0285 21.6245 86.5664 21.7615 87.16 21.7615C88.2254 21.7615 89.0067 21.2693 89.5091 20.2901C90.0112 19.311 90.2599 17.7787 90.2599 15.6935V13.4814C90.2651 11.9187 90.1686 10.696 89.9808 9.81329V9.81316ZM87.094 15.5159C87.094 16.5357 87.0534 17.3322 86.9672 17.9106C86.8859 18.4891 86.744 18.9 86.5461 19.1435C86.3481 19.387 86.0844 19.5088 85.7495 19.5088C85.4907 19.5088 85.2524 19.448 85.0291 19.3262C84.8109 19.2044 84.6283 19.0218 84.4913 18.7782V10.8381C84.5979 10.4575 84.7805 10.1481 85.0393 9.90467C85.298 9.66108 85.577 9.53928 85.8814 9.53928C86.201 9.53928 86.4496 9.66606 86.6222 9.91464C86.7947 10.1633 86.9165 10.5894 86.9874 11.178C87.0535 11.7716 87.0889 12.6138 87.0889 13.7096V15.5159H87.094Z" fill="#282828"/>
</svg>
